<mxfile host="app.diagrams.net" modified="2024-06-01T02:04:13.003Z" agent="Mozilla/5.0 (Windows NT 10.0; Win64; x64) AppleWebKit/537.36 (KHTML, like Gecko) Chrome/125.0.0.0 Safari/537.36 Edg/125.0.0.0" etag="EyHcuh7OABRn0pzbyQ9N" version="24.4.13" type="github">
  <diagram name="第 1 页" id="D0XysilM_ysdxRsm9DzH">
    <mxGraphModel dx="1042" dy="577" grid="1" gridSize="10" guides="1" tooltips="1" connect="1" arrows="1" fold="1" page="1" pageScale="1" pageWidth="827" pageHeight="1169" math="0" shadow="0">
      <root>
        <mxCell id="0" />
        <mxCell id="1" parent="0" />
        <mxCell id="JlSCkf8bLwDRaMhlVXnG-3" value="" style="edgeStyle=orthogonalEdgeStyle;rounded=0;orthogonalLoop=1;jettySize=auto;html=1;" edge="1" parent="1" source="JlSCkf8bLwDRaMhlVXnG-1" target="JlSCkf8bLwDRaMhlVXnG-2">
          <mxGeometry relative="1" as="geometry" />
        </mxCell>
        <mxCell id="JlSCkf8bLwDRaMhlVXnG-1" value="&lt;font style=&quot;font-size: 14px;&quot;&gt;开始&lt;/font&gt;" style="strokeWidth=2;html=1;shape=mxgraph.flowchart.terminator;whiteSpace=wrap;" vertex="1" parent="1">
          <mxGeometry x="364" y="154.5" width="100" height="60" as="geometry" />
        </mxCell>
        <mxCell id="JlSCkf8bLwDRaMhlVXnG-5" value="" style="edgeStyle=orthogonalEdgeStyle;rounded=0;orthogonalLoop=1;jettySize=auto;html=1;" edge="1" parent="1" source="JlSCkf8bLwDRaMhlVXnG-2" target="JlSCkf8bLwDRaMhlVXnG-4">
          <mxGeometry relative="1" as="geometry" />
        </mxCell>
        <mxCell id="JlSCkf8bLwDRaMhlVXnG-2" value="&lt;font style=&quot;font-size: 14px;&quot;&gt;进入系统主页&lt;/font&gt;" style="whiteSpace=wrap;html=1;strokeWidth=2;" vertex="1" parent="1">
          <mxGeometry x="354" y="274.5" width="120" height="60" as="geometry" />
        </mxCell>
        <mxCell id="JlSCkf8bLwDRaMhlVXnG-7" value="" style="edgeStyle=orthogonalEdgeStyle;rounded=0;orthogonalLoop=1;jettySize=auto;html=1;" edge="1" parent="1" source="JlSCkf8bLwDRaMhlVXnG-4" target="JlSCkf8bLwDRaMhlVXnG-6">
          <mxGeometry relative="1" as="geometry" />
        </mxCell>
        <mxCell id="JlSCkf8bLwDRaMhlVXnG-4" value="&lt;font style=&quot;font-size: 14px;&quot;&gt;输入关键词搜索&lt;/font&gt;" style="whiteSpace=wrap;html=1;strokeWidth=2;" vertex="1" parent="1">
          <mxGeometry x="354" y="394.5" width="120" height="60" as="geometry" />
        </mxCell>
        <mxCell id="JlSCkf8bLwDRaMhlVXnG-9" value="" style="edgeStyle=orthogonalEdgeStyle;rounded=0;orthogonalLoop=1;jettySize=auto;html=1;" edge="1" parent="1" source="JlSCkf8bLwDRaMhlVXnG-6" target="JlSCkf8bLwDRaMhlVXnG-8">
          <mxGeometry relative="1" as="geometry" />
        </mxCell>
        <mxCell id="JlSCkf8bLwDRaMhlVXnG-12" value="&lt;font style=&quot;font-size: 14px;&quot;&gt;Y&lt;/font&gt;" style="edgeLabel;html=1;align=center;verticalAlign=middle;resizable=0;points=[];" vertex="1" connectable="0" parent="JlSCkf8bLwDRaMhlVXnG-9">
          <mxGeometry x="-0.2844" y="-1" relative="1" as="geometry">
            <mxPoint as="offset" />
          </mxGeometry>
        </mxCell>
        <mxCell id="JlSCkf8bLwDRaMhlVXnG-11" value="" style="edgeStyle=orthogonalEdgeStyle;rounded=0;orthogonalLoop=1;jettySize=auto;html=1;" edge="1" parent="1" source="JlSCkf8bLwDRaMhlVXnG-6" target="JlSCkf8bLwDRaMhlVXnG-10">
          <mxGeometry relative="1" as="geometry" />
        </mxCell>
        <mxCell id="JlSCkf8bLwDRaMhlVXnG-13" value="&lt;font style=&quot;font-size: 14px;&quot;&gt;N&lt;/font&gt;" style="edgeLabel;html=1;align=center;verticalAlign=middle;resizable=0;points=[];" vertex="1" connectable="0" parent="JlSCkf8bLwDRaMhlVXnG-11">
          <mxGeometry x="-0.5053" y="2" relative="1" as="geometry">
            <mxPoint as="offset" />
          </mxGeometry>
        </mxCell>
        <mxCell id="JlSCkf8bLwDRaMhlVXnG-6" value="&lt;font style=&quot;font-size: 14px;&quot;&gt;是否找到相关信息&lt;/font&gt;" style="rhombus;whiteSpace=wrap;html=1;strokeWidth=2;" vertex="1" parent="1">
          <mxGeometry x="344" y="504.5" width="140" height="80" as="geometry" />
        </mxCell>
        <mxCell id="JlSCkf8bLwDRaMhlVXnG-15" style="edgeStyle=orthogonalEdgeStyle;rounded=0;orthogonalLoop=1;jettySize=auto;html=1;exitX=0.5;exitY=1;exitDx=0;exitDy=0;" edge="1" parent="1" source="JlSCkf8bLwDRaMhlVXnG-8" target="JlSCkf8bLwDRaMhlVXnG-14">
          <mxGeometry relative="1" as="geometry" />
        </mxCell>
        <mxCell id="JlSCkf8bLwDRaMhlVXnG-8" value="&lt;font style=&quot;font-size: 14px;&quot;&gt;展示相关信息&lt;/font&gt;" style="whiteSpace=wrap;html=1;strokeWidth=2;" vertex="1" parent="1">
          <mxGeometry x="354" y="650" width="120" height="60" as="geometry" />
        </mxCell>
        <mxCell id="JlSCkf8bLwDRaMhlVXnG-16" style="edgeStyle=orthogonalEdgeStyle;rounded=0;orthogonalLoop=1;jettySize=auto;html=1;exitX=0.5;exitY=1;exitDx=0;exitDy=0;" edge="1" parent="1" source="JlSCkf8bLwDRaMhlVXnG-10" target="JlSCkf8bLwDRaMhlVXnG-14">
          <mxGeometry relative="1" as="geometry" />
        </mxCell>
        <mxCell id="JlSCkf8bLwDRaMhlVXnG-10" value="&lt;font style=&quot;font-size: 14px;&quot;&gt;提示暂无相关信息&lt;/font&gt;" style="whiteSpace=wrap;html=1;strokeWidth=2;" vertex="1" parent="1">
          <mxGeometry x="560" y="650" width="120" height="60" as="geometry" />
        </mxCell>
        <mxCell id="JlSCkf8bLwDRaMhlVXnG-14" value="&lt;span style=&quot;font-size: 14px;&quot;&gt;结束&lt;/span&gt;" style="strokeWidth=2;html=1;shape=mxgraph.flowchart.terminator;whiteSpace=wrap;" vertex="1" parent="1">
          <mxGeometry x="364" y="780" width="100" height="60" as="geometry" />
        </mxCell>
      </root>
    </mxGraphModel>
  </diagram>
</mxfile>
